<?xml version="1.0" encoding="utf-8"?>
<!-- Generator: Adobe Illustrator 27.0.0, SVG Export Plug-In . SVG Version: 6.00 Build 0)  -->
<!DOCTYPE svg PUBLIC "-//W3C//DTD SVG 1.1 Basic//EN" "http://www.w3.org/Graphics/SVG/1.1/DTD/svg11-basic.dtd" [
	<!ENTITY ns_extend "http://ns.adobe.com/Extensibility/1.0/">
	<!ENTITY ns_ai "http://ns.adobe.com/AdobeIllustrator/10.0/">
	<!ENTITY ns_graphs "http://ns.adobe.com/Graphs/1.0/">
	<!ENTITY ns_vars "http://ns.adobe.com/Variables/1.0/">
	<!ENTITY ns_imrep "http://ns.adobe.com/ImageReplacement/1.0/">
	<!ENTITY ns_sfw "http://ns.adobe.com/SaveForWeb/1.0/">
	<!ENTITY ns_custom "http://ns.adobe.com/GenericCustomNamespace/1.0/">
	<!ENTITY ns_adobe_xpath "http://ns.adobe.com/XPath/1.0/">
]>
<svg version="1.1" height="50" width="70" baseProfile="basic" id="Layer_1" xmlns:x="&ns_extend;" xmlns:i="&ns_ai;" xmlns:graph="&ns_graphs;"
	 xmlns="http://www.w3.org/2000/svg" xmlns:xlink="http://www.w3.org/1999/xlink" x="0px" y="0px" viewBox="0 0 50 20"
	 xml:space="preserve">
<metadata><?xpacket begin="﻿" id="W5M0MpCehiHzreSzNTczkc9d"?>
<x:xmpmeta xmlns:x="adobe:ns:meta/" x:xmptk="Adobe XMP Core 7.2-c000 79.1b65a79, 2022/06/13-17:46:14        ">
   <rdf:RDF xmlns:rdf="http://www.w3.org/1999/02/22-rdf-syntax-ns#">
      <rdf:Description rdf:about=""
            xmlns:xmp="http://ns.adobe.com/xap/1.0/"
            xmlns:xmpGImg="http://ns.adobe.com/xap/1.0/g/img/"
            xmlns:xmpTPg="http://ns.adobe.com/xap/1.0/t/pg/"
            xmlns:stDim="http://ns.adobe.com/xap/1.0/sType/Dimensions#"
            xmlns:xmpG="http://ns.adobe.com/xap/1.0/g/"
            xmlns:dc="http://purl.org/dc/elements/1.1/"
            xmlns:xmpMM="http://ns.adobe.com/xap/1.0/mm/"
            xmlns:stRef="http://ns.adobe.com/xap/1.0/sType/ResourceRef#"
            xmlns:stEvt="http://ns.adobe.com/xap/1.0/sType/ResourceEvent#">
         <xmp:CreatorTool>Adobe Illustrator 27.0 (Windows)</xmp:CreatorTool>
         <xmp:CreateDate>2023-08-10T11:15:25+06:00</xmp:CreateDate>
         <xmp:MetadataDate>2023-08-10T11:15:25+06:00</xmp:MetadataDate>
         <xmp:ModifyDate>2023-08-10T11:15:25+06:00</xmp:ModifyDate>
         <xmp:Thumbnails>
            <rdf:Alt>
               <rdf:li rdf:parseType="Resource">
                  <xmpGImg:width>256</xmpGImg:width>
                  <xmpGImg:height>112</xmpGImg:height>
                  <xmpGImg:format>JPEG</xmpGImg:format>
                  <xmpGImg:image>/9j/4AAQSkZJRgABAgEASABIAAD/7QAsUGhvdG9zaG9wIDMuMAA4QklNA+0AAAAAABAASAAAAAEA&#xA;AQBIAAAAAQAB/+4ADkFkb2JlAGTAAAAAAf/bAIQABgQEBAUEBgUFBgkGBQYJCwgGBggLDAoKCwoK&#xA;DBAMDAwMDAwQDA4PEA8ODBMTFBQTExwbGxscHx8fHx8fHx8fHwEHBwcNDA0YEBAYGhURFRofHx8f&#xA;Hx8fHx8fHx8fHx8fHx8fHx8fHx8fHx8fHx8fHx8fHx8fHx8fHx8fHx8fHx8f/8AAEQgAcAEAAwER&#xA;AAIRAQMRAf/EAaIAAAAHAQEBAQEAAAAAAAAAAAQFAwIGAQAHCAkKCwEAAgIDAQEBAQEAAAAAAAAA&#xA;AQACAwQFBgcICQoLEAACAQMDAgQCBgcDBAIGAnMBAgMRBAAFIRIxQVEGE2EicYEUMpGhBxWxQiPB&#xA;UtHhMxZi8CRygvElQzRTkqKyY3PCNUQnk6OzNhdUZHTD0uIIJoMJChgZhJRFRqS0VtNVKBry4/PE&#xA;1OT0ZXWFlaW1xdXl9WZ2hpamtsbW5vY3R1dnd4eXp7fH1+f3OEhYaHiImKi4yNjo+Ck5SVlpeYmZ&#xA;qbnJ2en5KjpKWmp6ipqqusra6voRAAICAQIDBQUEBQYECAMDbQEAAhEDBCESMUEFURNhIgZxgZEy&#xA;obHwFMHR4SNCFVJicvEzJDRDghaSUyWiY7LCB3PSNeJEgxdUkwgJChgZJjZFGidkdFU38qOzwygp&#xA;0+PzhJSktMTU5PRldYWVpbXF1eX1RlZmdoaWprbG1ub2R1dnd4eXp7fH1+f3OEhYaHiImKi4yNjo&#xA;+DlJWWl5iZmpucnZ6fkqOkpaanqKmqq6ytrq+v/aAAwDAQACEQMRAD8A9U4q7FXYq7FXYq7FXYq7&#xA;FXYq7FXYq7FXYq7FXYq7FXYq7FXYq7FXYq4kAEk0A6nFVCzv7K+iM1ncR3MIZkMkTB15KaMOS1FQ&#xA;euExI5plEjmr4EOxV2KuxV2KuxV2KuxV2KuxV2KuxV2KuxV2KuxV2KuxV2KuxV2KuxV2KuxV2Kux&#xA;V2KuxVB6rrOlaTam61O7is7cf7smcICfAV6n2GSjAyNAWyhAyNAW8t80f85D6Na84PL1o2oTCoF1&#xA;PWKAHsQv944+fHM7HoJH6jTsMXZ0j9Rp5J5l/MTzj5mYx6jfubZzQWMH7uH2HBftf7KpzPx6eEOQ&#xA;dhi08Icg+n/JWhDQvKml6VxCyW0CicDp6r/HKf8Ag2OaTNPimS6LPk45kp1lbU7FXYq7FXYq7FXY&#xA;q7FXYq7FXYq7FXYq7FXYq7FXYq7FXYq7FXYq7FXYq7FXYq7FWMeZ/wAyfJ/lsOmoX6tdr/x5W/72&#xA;eo7FV2X/AGZGX49POfIN+LTTnyGzyPzR/wA5Da7d84fL9qmmw9Bcy0mnI8Qp/dr9zfPM/HoIj6t3&#xA;Y4uzoj6jbzO6vdb17UVe5muNSv5jxTmzSyH/ACVG5+gZmgRiNtg54jGA22CEuITDK0RZXZNmKEMt&#xA;e4DDZqeI28MkDbIG2VflPoP6a8+aZbuvK3t3+t3HccIPjFfZn4r9OY+qnw4y4+rycOMl9YZonnnY&#xA;q7FXYq7FXYq7FXYq7FXYq7FXYq7FXYq7FXYq7FXYq7FXYq7FXYq7FXYq07pGjO7BUUFmZjQADckk&#xA;4q8080fn15S0rnDpYfWLtaisX7uAH3lYb/7FSPfM3HoZy57Odi0E5c9g8j8z/nB521/nE139Qs22&#xA;+q2dYgR/lPUyN7/FT2zPx6SEOll2OLR44dLPmwnMlymR+TvIfmDzXdmPT4uFpGf9Jv5arBEOpq3d&#xA;v8kb/RvlObPHGN2nNqI4xvzTDzLqvl/RIJvL/lN/XDAx6rr7Aerc/wA0UNP7uDx4/b7kjrHHGUvV&#xA;P4D8dWGKEpeqfwHd+1hmZDkvd/8AnHHQBHZanr0i/FO4s7c9wiASSfQzMv3Zq+0J7iLqe0sm4j8X&#xA;s+a51jsVdirsVdirsVdirsVdirsVdirsVdirsVdirsVdirsVdirsVdirsVdirsVdirB/OX5QeU/M&#xA;vqXAi/R2pvU/XbYAcmPeSPZX9zsffMnDq5w8w5WHWThtzDwzzh+U/m7yy7SSW5vtPH2b61BdQP8A&#xA;ixack+kU9zm0xaqE/Iu2w6uE/Iso/L38jLzUBHqnmgNZafs6WH2J5V6/vD1iX/hvl1yjPrQNo7lx&#xA;9RrgNoblS/M38zbI2h8peUFS10OAGK5ntwFWbxjjp/uv+Zv2/l9o6bTG+Of1J0ulN8c/qeU5nOwd&#xA;ir6/8haB+gPKGl6Wy8ZooQ9yKb+tL+8kr8mYjOfz5OOZLzmoyccyU/yppdirsVdirsVdirsVdirs&#xA;VdirsVdirsVdirsVdirsVdirzD8zvzB806B5n03R9EFmBfQCQtefCocuy7yM8aqKL3zN02CM4kyv&#xA;Zz9Lp4TgZSvbuSjQvzp12z1650zzVDZyxR28s6T6c6yUaKFpuPJJJUbkF49qHLJ6OJjcL+LZk0UT&#xA;G4X8UD/ytb82JdOfzVBpFuPLKSFaceQ4huB+LmJTvsXC8a/dkvyuK+C/Uz/KYb4L9Sb67+dGpX/6&#xA;I07yXYC51bVoRKwlHP0iSwMQAKgspRizMeIH4QhowLMzsGrHogLOQ7Bx8z/nNo+kaxqnmKytoLe0&#xA;tOdo37hwbgzxIAwhlZqemz4+HhkQInqvhYJSAieZQWl/m95y8wSRrpFtb29np1n9Z1/Up4mdI+Cc&#xA;5WRVddhxIRa1b2HSUtJCHPmTsGctHCH1HcnYJNL+d/nvU7qV9JGn2VpGeKR3MkEchHYsZ5I+R8eI&#xA;plg0eOI3stg0OOI3slPb7zx+cNp5bTzALfTptKSFXmulaOT4i/A8fSlofi22yqOHCZcO9tUcGAy4&#xA;d7ZD+XXmH8zdcmtdQ1m1s08v3ULSRzw0EhP7Hw+ozDf2yrUY8Udok8TTqceKFiJPEyD8y4ZZvIOv&#xA;JEzIy2ckhKkg8YxzYbdiqkH2ynTn94Pe06Y1kj73ymmjao+kSawls7abDMttLcgfCsrLyCn6P4eO&#xA;b3jF11eg4xxcPVBZJkyn8sdAOu+eNLs2XlBHKLi58PTg/eEH/WIC/TlGpnwwJaNVk4MZL6L88/mP&#xA;5f8AJ9un15mnvpgWt7CGhkYdOTE7Ile5+gHNRh08snLk6XBppZDtyeQ3/wDzkX5tllJsrGytYa/C&#xA;riSZ6eBbmgP/AAObCPZ8OpLsY9nQ6kpjoX/OR+oLMqa9pcUsBoGmsi0bqPHhIzhv+CXIT7PH8JYZ&#xA;OzR/Cfm9o0LXtK13TYtS0u4W4tJejjYhh1VlO6sO4Oa6cDE0XWZMZgaPNH5Bg7FXYq7FXYq7FXYq&#xA;7FXYq7FXYq7FXYq7FXYq8m/NX8vdZ81+ddIMELrpYtvRur5ChETc3YEqzAtSo6Zn6bPGED3ux0uo&#xA;jjxnvtjPk/8AKzzDpuqappes6KZrTUIJLKHW4ZEb6vz6TIhdSVbblVeVPpBuy6mJAMTy3pvzaqMg&#xA;DE7jelZfJH51Q6I/kyNYG0B3KfXPUh4iMvzIBJ9YIW3I4V7dMHjYTLj/AIkePgMuP+JMtV/J7zHo&#xA;LaLq/kydZNX0yER3EblE9SQ8y8iGT4KN6jKVY9MhHVxlYnyLXDWRncZ8irXVl+dWvaDrWl69psIi&#xA;uLMCzWN7VS1wtxCwWqymn7sOd9sAOGMgYnr5oEsEJAxPXz7kq0j8t/zE8sosenWx1HS9as/Q1/S/&#xA;XgjaNpI+EqhncIWXkfTdSfA+9k9Rjnz2IOxbJ6nFPmaMTsUkk/Jrz/ptxJHa6Pa6vbvRo5pZIkZR&#xA;4FWmjIb+YAsK9CeuWfm8ZG5ptGtxyG5Iem3PlbzDN+TT+Xxp6Q6y0PD6hG8YQN9Z50Dl2T7O/wBv&#xA;MMZYjNxXs4IyxGfiv0/sZL5B0u+0rydpOnX8Xo3ltAEni5K3Fqk05IWU/QcozyEpkjk0aiQlMkck&#xA;01iy+vaRfWVK/WreWGn/ABkQr/HIQNEFrhKpApH5Y8j6bpnkiDyzeQpPDJCRqC9pJZfikNeuzfZP&#xA;UUGW5MxlPiDblzmWTjHwfOH5heRr7yhrr2UvKSxmrJYXRG0kdehp+2nRh9PQjNxgzDJG+ru9PnGS&#xA;N9XpP/OOGg0TVdekX7RWytm77Ukl/wCNMwu0J8o/Fwe0snKPxTn83fyml8wvJr2jsTq6IBNaOx4z&#xA;JGKD06/Zem1Oh9j1r0uq4PSeTXo9XwemXJh/lT/nH3V9T0+O91m9OlNMOUdn6XqTAHp6lWTgf8nr&#xA;40zIy68RNRFuTl7QjE1EWxv8xPyt1byaYrhplvtLnb047tVKFZKV4SJVuJIBpQmtMu0+pGTyLdp9&#xA;UMu3Ipt+Q/mm40zzaukO5Njq4KFCfhWdFLRuPc0KfSPDIa3FxQvqGvX4hKHF1D6SzTOkdirsVdir&#xA;sVdirsVdirsVdirsVdirsVdiryb8wfz0tdGu5dL8vwx319CeM93ISbeNh1VQpBdh33AHvmfg0RkL&#xA;lsHY6fQmQuWweaS/nd+ZbyMy6ssanoi21sQPlyjY/jmaNHi7vvc4aHF3faVn/K6/zN/6vP8A07Wn&#xA;/VLH8ni7vvX8li7vtLv+V1/mb/1ef+na0/6pY/k8Xd96/ksXd9pe5/lH5h1jzB5Oj1HV7j6zeNPK&#xA;hl4JH8KkUHGNUX8M1mqxiE6HJ1WrxxhOo8nlvn386vNcfmm9tvL1+LXTLRzbxgRQy+o0Zo8nKRHO&#xA;7VpTalMzcGjhwgyG7n6fRQ4AZDcsq/KTW/zH8yvJrGtayU0G1Yrw9C1Qzuoqw5iIFUT9ph8h3pTq&#xA;oY4bRHq+Lj6uGKHpiPV8UB53/wCcgTb3Utj5WhjmWMlH1KcFkYjb9ygIqPBm6+HfJYdDYufyZ4Oz&#xA;7Fz+TBG/Oz8zCxI1gKCahRbWtB7bxHMr8ni7vvcv8li7vtLX/K6/zN/6vP8A07Wn/VLH8ni7vvX8&#xA;li7vtLv+V1/mb/1ef+na0/6pY/k8Xd96/ksXd9pRumfnz+YNpMGuriDUI6/FHPDGm3sYRFkZaHGe&#xA;WzGWgxnls9Jttd8qfm75bn0iVfqGswr60ULkO8Ug2EsTfDzTfiw2Py2OYZhPTyvmHBOOenlxc4of&#xA;zKNb/Ln8ptMg0q5W21OKeNLudUjlBeYSSSgeorAjlsDToMOPhzZTfJli4c2Y3yeY/wDK6/zN/wCr&#xA;z/07Wn/VLM38ni7vvc78li7vtLv+V1/mb/1ef+na0/6pY/k8Xd96/ksXd9pQGu/mb5317TZNN1bU&#xA;Rc2UpVniMFum6MGUhkjVhuOxycNNCJsDdnj0uOBsDf4pBp2o3mm39vf2UnpXdq6ywS0VuLqag8WB&#xA;U/SMtlEEUW6URIUeT6S/JTzXr/mXQL661q6+t3EN16Ub+nHHRPTVqUiVB1OabWYowkBHudJrcUYS&#xA;AiOj0PMRwnYq7FXYq7FXYq7FXYq7FXYq7FXYqwr84PM8/l/yTczWrmO9vWWztpFNGUyAl2HgRGrU&#xA;PY5k6THxz35BytHi48gvkN3zLoOiX+uaxa6TYKHu7t+EYJoo2qzMf5VUFj7ZupzEQSXe5JiESTyD&#xA;3PT/APnHHy0tqg1HU7ya6oPUa3MUUde9FeOU/jmsl2hK9gHUy7SlewCJ/wChc/JP/Ldqf/I23/6o&#xA;ZH+UJ9w/HxR/KOTuH4+Lw7znotrofmnUtJtHd7azmMcTykFyAAfiKhR38M2eGZlEE9Xa4ZmUAT1e&#xA;1fldqbaX+TF/qKGkloL2WP8A11Wqf8NTNbqY8WYD3Or1UeLOB30+fVV5JAq/E7mg9yTm2dw95/Nu&#xA;9HlD8utJ8p6e3pteJ6EzptyihUNOf+esjiviCc1elHiZDMuo0kfEymZ6PH/J3lLUvNWuRaTYFUdl&#xA;Mk0z/ZiiWnJ2pv1IA9zmwy5RCNl2WbMMcbL2y3/5xy8orCoudR1CSYD43jaGNSfZTFIR/wAFmtPa&#xA;E+gDqz2lPoAqf9C5+Sf+W7U/+Rtv/wBUMH8oT7h+Piv8o5O4fj4vn3UrZLXUbq2jJMcE0kaFupCM&#xA;VFaU8M20TYBdxE2AXpCfks+oeQrPzHo908l/Jb/WJ7CUAh6VqImUAg0GwINfHMP85WQxPJwfztZD&#xA;GQ2ed6JrF9o2rWuqWL+ndWkgkjPY06qfFWGxHhmXOAkKLmzgJAg9Xvf54ahDqP5YWGoQ1EN5cWtx&#xA;ED14ywu6/gc1WjjWUjut1Ghjw5SO63jX5eeXLHzJ5w0/Rb55Y7W69b1HgKrIPTgeQcSyuOqDtmxz&#xA;5DCBkHZ6jIYQMg9o/wChc/JP/Ldqf/I23/6oZrv5Qn3D8fF1n8o5O4fj4sI1Dyx+RFhfXFjca7qv&#xA;1i1kaKYIEdQ6HiwDLbEGhHbMmOTORdD8fFyo5dQRYjH8fFFaF5I/I3W7xbOy8w6gLqQ0jimaOEuT&#xA;0CmS3VSfatcjPNniLMR+PixyZ9REWYj8fF695K8jaT5PsJ7HTJriaK4l9d2uWRmDcQtBwSMUovhm&#xA;BmzHIbLrc+c5DZZFlLS7FXYq7FXYq7FXYq7FXYq7FXYq7FXlP/ORkEr+UbCVVqkV8vqEduUUgBP0&#xA;5n9nn1n3Ow7OPrPueU/lFrlho3nzT7q/ZY7aQSW7TPQCMyoVViT0HKgJ7A5naqBljIDsNZAyxkB9&#xA;Wdc0Tz7sVfJf5pf+TC13/mJP/ERm+0392HotL/dx9z0jylE8n/OP2sKgqQt0x+SEMfwGYeU/4QPg&#xA;4OY/4SPg8V024W21G1uWFVgmjkYeyMG/hmykLFO0kLBD2P8A5yTidpdAuVHKBkuEEg3FaxsN/cdM&#xA;13Z5+oOt7NP1BIvyA1yw07zfNa3brEdSt/RtpGoP3qurKlT/ADivzNBluugTCx0be0IGULHR9IZp&#xA;3SOxV8X67/x29Q/5iZv+Thzo4fSHp8f0j3PpryLq9jo/5VaXqV/IIrW1svUkY+xNFHizHYDxzS5o&#xA;GWUgd7os8DLMQO98tTSepK8lOPNi3EdBU1pm8Dvw9z/Mq0ls/wAkPL9tMOMsf1ESKdiG9BiR9HTN&#xA;ZpzeeR97qtMbzyPvYB+Sn/kzdG/6Of8AqElzK1n90fx1cvW/3R+H3vpLzTeapZ+Xr+fSrd7rUliK&#xA;2cMYBYyv8KtQ02UnkfYZpsQBkL5OkxAGQvk+YX/K/wDMR3Z30S6Z2JLMQCST1JNc3f5nH3h3v5rF&#xA;3hj+qaTqek3z2Wo272l5FQvDIKMAwqD9Iy2MhIWG6ExIWOT6X/JfzTd+YPJiG+dpbzT5WtJZm3aR&#xA;VVWRie54vxPyrmm1mIQntyLo9biEJ7cizzMVxHYq7FXYq7FXYq7FXYq7FXYq7FXYqlPmvy5Z+Y9A&#xA;vNHujxjukokoFSkinkjj/VYA+/TLMWQwkCGzFkMJCQfJnmXyxrPlvVJNO1WAwzIT6b7mORK7PG37&#xA;Sn/b3zfY8gmLD0WLLGYsJz5X8zfmVcyJpWhaneOEWoi9X93FGvVi0h4xoviSBlWXHjG8gGrLixDe&#xA;QDJfr35rS/u7Hzda6jedrG0voZJ2p1CKQoc+yE5Tw4usSPg0cOHrEge55tql3qN3qNxcak7yX8jn&#xA;6y0oo/MbHkNqEUzNiABQ5OdEAChyfQ/5KWMN/wDlbJYz7w3cl1BKP8mQcW/A5qNZKst+50utlWW/&#xA;c+edX0u60rVLrTbteNxaSvDKPdDSo9j1GbaEhIAh3MJCQBHV7noqWf5n/lYmktKqa/pAREZzuJYl&#xA;KxO3fhLH8LHxr4ZrJ3hy3/CXVTvBm4v4S8N1TStT0fUJLHUIHtL2BqPG4oQexB7g9iM2cZCQscna&#xA;xmJCxyTm2/Mrz7bwrDFrt3wXZQ0hcgfN+Rys6fGegazpsZ/hCr/ytL8wv+r7c/ev9MH5bH3I/K4/&#xA;5oYvLLJNK8srF5JGLux6lmNScvAbwKfTPlzyppnmn8otI0q/BCPbK8Ey/ailUtxkX5V6dxtmlyZT&#xA;DMSHR5Mpx5iR3vPPJv5I623nCSHXYeGj6ZIHeb9i7puixV6q37fh065mZtZHg9PM/Y5mbXR4PT9R&#xA;+xnX/OQn/KBx/wDMdD/xCTMXQf3nwcTs/wDvPg+d9L1XUNKvor/Tp2tryHl6U6faXkpRqfNWIzby&#xA;iJCjyd1KAkKPJkH/ACtL8wv+r7c/ev8ATKfy2PuafyuP+aHf8rS/ML/q+3P3r/TH8tj7l/K4/wCa&#xA;Eg1TVtS1W9kvtSuHuruWgeaQ1YhRxH3AZbGIiKDbCAiKHJ9Jfkh5ZvtD8mBr5GiudRma69FxRkjK&#xA;qiBh2JC8vpzT6zIJT26Ok12UTnt0eg5iOG7FXYq7FXYq7FXYq7FXYq7FXYq7FXYqgtX0PSNZtDaa&#xA;pZxXludwkqhqHxU9VPuMlCZibBpnCcomwaeF/nNo2l+ULCz0by9AbKz1h5Li/o7u0nocFji5OS3B&#xA;S5bjXrm00kzkJlLena6KZyEyluQ8jR3R1dGKupBVgaEEdCDme7F7rpPlfyF5i8o6X5u84zfVL6+U&#xA;29xdtP6KzSwO8Su1djI6Q8j45q5ZMkJmEOQdTPLkhMwhuAzDyx5g/K7y3pS6Zpmu2i2qu0gElyjt&#xA;yfc7k5j5MeWZsguPlx5ZmzE/Ji/5ifl7pnnmaHzJ5Z1C1Y8vQ1W45gw8I1r6vJa/HGtAR3FOlN79&#xA;PnOL0yHub9PqDi9MwfJP/Icv5W+WLH6jpWtWUt1IC93ePNH6kpRSxLGtFRQCadB86nKs4yzNkFpz&#xA;jNkNkFMfM+o/lZq1vDDr95ptzFKnq2zyTJUoWKcopUYMByQj4W6jIY45Y/SCwxRzRPpBYpJ+Wf5K&#xA;/o79L/XQmmPJ6S3IvP3PPf4A5rvt45f+YzXVb+5yPzOe+Gt/chYvIv5CzSpFFq8bySMERRfLUsxo&#xA;Bkjmz932Mjn1A6fYqT/l5+RcEMU0uqxiGYsIZRfIyMUpyAZSQePIVwDPnPT7EDUag9PsegaHqPlD&#xA;SfKkMthqEP6AsF9JLtpQ6CjUoX7mrUzFnGcp7j1Fw5xnKe49Rb/5WD5I+Cmt2h9T7FJVNd6bUweB&#xA;PuK/l8ncWPefPMf5aaxoj2Wqagt5FFIkwtLOZFmLqCBQsyKNnqeTAU3y7BjyxlYFN2DHljKwK97F&#xA;rLyV+Rd1YQ3n157dJUDmKe54SJX9lxvQjp1y85s4NU5Es+oBqvsR2ofll+S+nSmK/vTbSKFYpJdc&#xA;TRhVeo7g5COpzHkPsYR1WeXIfYow/l7+RcySPHqissf2/wDTQD9ktQA7k0Umg8MJz5+77EnUagdP&#xA;sQ/kuP8AKO31S2mTTFhaar2d3fXkMxULUq0kBk/dk02+E0PWmSzeMRz+QZZjmIO/yD2a1ura7t47&#xA;m1mSe3lHKKaJg6Mp6FWWoIzXEEbF1hBBoqmBDsVdirsVdirsVdirsVdirsVdirsVdirsVYp+YnkC&#xA;x85aQlrLL9WvbZjJZXQHIKzCjKy1FVagr8hl+nznGb6ORp9QcUr6PKNP/wCccvMjXyrqGo2cViG/&#xA;eSQGWSUr/kq6RrX5t9+Z8u0I1sDbsJdpRrYG3rWseTOfl3TtF0eRbW209qCKUvxlhMEsDo7IQ1W9&#xA;blX+YZgQzeoyPV18M3qMpdWKzflHrcggc6qplglMqBpLglFElqyIk3L1VoLT7QIoW2pTLxqo9343&#xA;/W3jVx7vxv8ArTvQfJWsW5uIdRvrjiHnlt7iG+uHVzcoEKTRS7v6XGqs7nfwyqeYHkPsasmeJ5D7&#xA;AlsX5U3bSRfWLi2WNQiTcRNN6nG3uYWdluGkFWN0Dxrx2yZ1Q/Hw/U2HVjp+Nx+pev5TkiKCaaEW&#xA;kds0IjtmuoB6gedxJw9WQH1DOvqKxO67Gm2P5r8beSPzfz+HkjLb8u7yHynFoxvEaaG9F5Ueqkci&#xA;gUMTmNkkAIruD1pkTqAZ8VdGJ1AM+KulJYv5T6gb6wnF1b28FtMJrqGMTSesovhdLE5lZgyxqCE5&#xA;CvImuT/NCjt+Kpn+bFHb8VSqfyonhsha28toYx9YX0wLm3RvXSJVmZY5m/eJ6RWn2COwwfmt7N/Y&#xA;j83vZv7E1h8g3VrounWFtfK72N612VuFaSJleN4+AVmY1i9TkhNRyHTwgc4MiSOYYHUAyJI5hKLH&#xA;8obu1NpG+syTQxMGlZQ8Lhi0pd4DzkaNm9UN9qnKpFK0yctUDezZLWA3shbz8k5nSe2tdURLaQgx&#xA;SywBptlcfvihRZXJfdzQkda95DWdSGUdb1IRMf5U6rNpbW13rEy0toIbeySedreN4QqnlQxpIh4l&#xA;wvpLxLEbgDB+aF2Ax/NgGwOqeecfy+j1++g1KK7eO8g4KsM4E1txVwzFI2/upNtnQ5Viz8IqtmrD&#xA;qOAVWzHR+U+pQLDdmW2vrq0aOSOzcOkTcWdiquCGBTkvp8qqSvxDwu/NA7cm782DtuLXJ+SFi1+L&#xA;m41KZwbH0GrR2W4MfpFlZwWMPDpET7fZ2wfnDVV1X88aoDr+PizbyhpVzpOgwaZPBDC1oXjU27O0&#xA;cili3q/vCzgvyqwZjvXc5jZZCUrcXNMSlfenOVtTsVdirsVdirsVdirsVdirsVdirsVdirsVdirs&#xA;VdirsVdirsVdirsVdirsVdirsVdirsVdirsVdirsVdirsVdirsVdirsVf//Z</xmpGImg:image>
               </rdf:li>
            </rdf:Alt>
         </xmp:Thumbnails>
         <xmpTPg:MaxPageSize rdf:parseType="Resource">
            <stDim:w>50.000000</stDim:w>
            <stDim:h>20.000000</stDim:h>
            <stDim:unit>Pixels</stDim:unit>
         </xmpTPg:MaxPageSize>
         <xmpTPg:NPages>1</xmpTPg:NPages>
         <xmpTPg:HasVisibleTransparency>False</xmpTPg:HasVisibleTransparency>
         <xmpTPg:HasVisibleOverprint>False</xmpTPg:HasVisibleOverprint>
         <xmpTPg:PlateNames>
            <rdf:Seq>
               <rdf:li>Cyan</rdf:li>
               <rdf:li>Magenta</rdf:li>
               <rdf:li>Yellow</rdf:li>
               <rdf:li>Black</rdf:li>
            </rdf:Seq>
         </xmpTPg:PlateNames>
         <xmpTPg:SwatchGroups>
            <rdf:Seq>
               <rdf:li rdf:parseType="Resource">
                  <xmpG:groupName>Default Swatch Group</xmpG:groupName>
                  <xmpG:groupType>0</xmpG:groupType>
               </rdf:li>
            </rdf:Seq>
         </xmpTPg:SwatchGroups>
         <dc:format>image/svg+xml</dc:format>
         <xmpMM:InstanceID>xmp.iid:09385cf0-dac8-f947-ac26-5283b73ec534</xmpMM:InstanceID>
         <xmpMM:DocumentID>xmp.did:4f0498da-a1db-694b-bb71-c5817474dbb8</xmpMM:DocumentID>
         <xmpMM:OriginalDocumentID>xmp.did:6ad1c26a-94fa-b24e-bf03-c74e86d97a1c</xmpMM:OriginalDocumentID>
         <xmpMM:DerivedFrom rdf:parseType="Resource">
            <stRef:instanceID>xmp.iid:cd069556-901c-2c4e-b2b4-d7659ace10d1</stRef:instanceID>
            <stRef:documentID>xmp.did:cd069556-901c-2c4e-b2b4-d7659ace10d1</stRef:documentID>
            <stRef:originalDocumentID>xmp.did:6ad1c26a-94fa-b24e-bf03-c74e86d97a1c</stRef:originalDocumentID>
         </xmpMM:DerivedFrom>
         <xmpMM:History>
            <rdf:Seq>
               <rdf:li rdf:parseType="Resource">
                  <stEvt:action>saved</stEvt:action>
                  <stEvt:instanceID>xmp.iid:d6eec206-32ee-d341-910b-3424d46822d3</stEvt:instanceID>
                  <stEvt:when>2023-08-10T10:27:09+06:00</stEvt:when>
                  <stEvt:softwareAgent>Adobe Illustrator 27.0 (Windows)</stEvt:softwareAgent>
                  <stEvt:changed>/</stEvt:changed>
               </rdf:li>
               <rdf:li rdf:parseType="Resource">
                  <stEvt:action>saved</stEvt:action>
                  <stEvt:instanceID>xmp.iid:4f0498da-a1db-694b-bb71-c5817474dbb8</stEvt:instanceID>
                  <stEvt:when>2023-08-10T11:15:25+06:00</stEvt:when>
                  <stEvt:softwareAgent>Adobe Illustrator 27.0 (Windows)</stEvt:softwareAgent>
                  <stEvt:changed>/</stEvt:changed>
               </rdf:li>
            </rdf:Seq>
         </xmpMM:History>
      </rdf:Description>
   </rdf:RDF>
</x:xmpmeta>





















<?xpacket end="w"?>
	</metadata>
<rect x="6.237" y="1.918" display="none" fill-rule="evenodd" clip-rule="evenodd" fill="#8B3392" width="37.526" height="16.164"/>
<g>
	<polygon fill-rule="evenodd" clip-rule="evenodd" fill="#8B3392" points="30.365,4.716 27.105,7.976 27.334,9.806 27.934,8.548
		29.793,10.921 32.395,2.915 23.731,6.517 26.076,7.747 	"/>
	<g>
		<path fill="#8B3392" d="M27.534,10.435c0,0-2.759,0-3.431,0c-2.616,0.4-2.888,4.203-0.029,4.718h3.46v-3.431
			c1.153,0.038,1.392,1.477,0.543,2.002c0.172,0.2,0.858,0.944,0.858,0.944C30.736,13.113,29.707,10.559,27.534,10.435z
			 M26.277,13.866c0,0-1.773,0-1.916,0c-1.187,0.071-1.573-1.887-0.114-2.145c0.429,0,2.03,0,2.03,0V13.866z"/>
	</g>
	<path fill-rule="evenodd" clip-rule="evenodd" fill="#8B3392" d="M34.711,12.15c-0.572,0-1.258,0-1.258,0l-0.543,1.258
		c0,0,1.458,0,1.601,0c0.322-0.014,0.336,0.457,0,0.486c-0.415,0-2.774,0-2.774,0v-2.173h4.26v-1.287c0,0-0.593,0-0.629,0
		c-0.186-2.659-3.367-2.738-4.203-1.287c0.164,0.136,0.944,0.829,0.944,0.829c0.479-0.751,1.809-0.715,2.002,0.458h-3.631v4.718
		h4.089c0.929-0.014,1.358-0.701,1.458-1.287C36.084,12.922,35.512,12.293,34.711,12.15z"/>
	<path fill-rule="evenodd" clip-rule="evenodd" fill="#8B3392" d="M22.473,10.435h-1.658c-0.529,0.643-1.444,3.245,0.372,5.204
		c0,0,0.786-0.672,0.944-0.801C21.572,14.295,20.643,12.079,22.473,10.435z"/>
	<path fill-rule="evenodd" clip-rule="evenodd" fill="#8B3392" d="M18.251,15.684c0,0.574-0.465,1.039-1.04,1.039
		c-0.574,0-1.04-0.465-1.04-1.039c0-0.574,0.465-1.04,1.04-1.04C17.786,14.645,18.251,15.11,18.251,15.684z"/>
	<g>
		<path fill-rule="evenodd" clip-rule="evenodd" fill="#8B3392" d="M16.039,10.435c-2.616,0.4-2.888,4.203-0.029,4.718h0.019
			c0.203-0.451,0.656-0.765,1.182-0.765s0.979,0.314,1.182,0.765h1.076c0-0.157,0-4.718,0-4.718S16.711,10.435,16.039,10.435z
			 M18.212,13.866c0,0-1.773,0-1.916,0c-1.187,0.071-1.573-1.887-0.114-2.145c0.429,0,2.03,0,2.03,0V13.866z"/>
	</g>
	<g>
		<g>
			<path fill-rule="evenodd" clip-rule="evenodd" fill="#8B3392" d="M17.269,9.32c0.421-0.072,0.629-0.936-0.058-1.13
				c-0.079,0-1.115,0-1.115,0v1.644h0.458V9.32l0.515,0.515h0.715L17.269,9.32z M17.215,8.739c0,0.06-0.049,0.108-0.108,0.108
				h-0.547V8.618h0.547c0.059,0,0.108,0.049,0.108,0.108V8.739z"/>
		</g>
		<g>
			<path fill-rule="evenodd" clip-rule="evenodd" fill="#8B3392" d="M18.58,8.164c-0.46,0-0.833,0.373-0.833,0.833
				c0,0.46,0.373,0.833,0.833,0.833c0.46,0,0.833-0.373,0.833-0.833C19.413,8.537,19.04,8.164,18.58,8.164z M18.58,9.363
				c-0.202,0-0.366-0.164-0.366-0.366c0-0.202,0.164-0.366,0.366-0.366c0.202,0,0.366,0.164,0.366,0.366
				C18.946,9.2,18.782,9.363,18.58,9.363z"/>
		</g>
		<path fill-rule="evenodd" clip-rule="evenodd" fill="#8B3392" d="M23.306,8.638h0.749V8.155h-0.634
			c-0.498,0-0.906,0.376-0.906,0.836c0,0.46,0.408,0.836,0.906,0.836h0.634V9.343h-0.749c-0.11,0-0.208-0.053-0.271-0.133h1.02
			V8.771h-1.02C23.099,8.69,23.197,8.638,23.306,8.638z"/>
		<g>
			<path fill-rule="evenodd" clip-rule="evenodd" fill="#8B3392" d="M20.33,9.343c-0.189,0-0.343-0.154-0.343-0.343V8.981
				c0-0.189,0.154-0.343,0.343-0.343h0.712V8.155h-0.638c-0.498,0-0.906,0.376-0.906,0.836c0,0.46,0.408,0.836,0.906,0.836h0.638
				V9.343H20.33z"/>
		</g>
		<polygon fill-rule="evenodd" clip-rule="evenodd" fill="#8B3392" points="25.794,8.186 24.181,8.186 24.181,8.618 24.771,8.618
			24.771,9.8 25.204,9.8 25.204,8.618 25.794,8.618 		"/>
		<polygon fill="#8B3392" points="21.953,8.987 22.748,8.186 22.105,8.186 21.658,8.637 21.658,8.186 21.226,8.186 21.226,9.8
			21.658,9.8 21.658,9.338 22.117,9.8 22.76,9.8 		"/>
	</g>
	<g>
		<path fill="#8B3392" d="M28.452,15.953c-0.071,0.014-0.134,0.059-0.188,0.135c-0.052,0.072-0.078,0.144-0.078,0.218
			c0,0.044,0.009,0.087,0.028,0.129c0.023,0.053,0.055,0.079,0.094,0.079c0.02,0,0.046-0.011,0.078-0.033l0.045,0.12
			c-0.04,0.024-0.08,0.037-0.118,0.037c-0.052,0-0.102-0.019-0.15-0.058c-0.028-0.023-0.054-0.065-0.079-0.128
			c-0.013-0.031-0.019-0.078-0.019-0.14v-0.044c0-0.098,0.052-0.208,0.156-0.33c0.022-0.025,0.059-0.061,0.111-0.107h0.163v0.119
			C28.478,15.95,28.464,15.952,28.452,15.953z"/>
		<path fill="#8B3392" d="M29.174,15.949v0.679h-0.136V16.54c0-0.03-0.023-0.069-0.069-0.116c-0.035-0.036-0.071-0.067-0.109-0.093
			c-0.042-0.029-0.088-0.044-0.138-0.044c-0.051,0-0.088,0.022-0.111,0.065c-0.003,0.005-0.004,0.011-0.004,0.019
			c0,0.018,0.009,0.034,0.027,0.049c0.018,0.015,0.036,0.022,0.054,0.022c0.014,0,0.049-0.011,0.103-0.032l0.04,0.124
			c-0.061,0.031-0.111,0.046-0.152,0.046c-0.045,0-0.087-0.013-0.124-0.038c-0.038-0.025-0.065-0.059-0.082-0.1
			c-0.008-0.018-0.012-0.04-0.012-0.066c0-0.077,0.032-0.136,0.095-0.176c0.044-0.029,0.092-0.044,0.142-0.044
			c0.005,0,0.009,0,0.013,0c-0.001-0.024-0.014-0.05-0.038-0.08c-0.024-0.029-0.048-0.044-0.071-0.044h-0.15v-0.083h-0.061V15.83
			h0.874v0.119H29.174z M29.039,15.949h-0.32c0.09,0.059,0.137,0.135,0.141,0.23c0.058,0.023,0.117,0.068,0.178,0.135V15.949z"/>
		<path fill="#8B3392" d="M29.439,15.949v0.679h-0.136v-0.679h-0.1V15.83h0.327v0.119H29.439z"/>
		<path fill="#8B3392" d="M30.094,15.949h-0.612V15.83h0.847v0.119h-0.094v0.679h-0.12c-0.012-0.035-0.07-0.089-0.176-0.162
			c-0.043-0.03-0.103-0.059-0.179-0.087c-0.081-0.03-0.146-0.045-0.194-0.045l-0.036-0.135c0.032-0.025,0.119-0.069,0.263-0.131
			C29.853,16.041,29.953,16.001,30.094,15.949z M30.101,16.096c-0.025,0.009-0.052,0.018-0.081,0.03
			c-0.043,0.019-0.12,0.053-0.232,0.102l-0.026,0.011c0.107,0.038,0.21,0.093,0.308,0.167c0.013,0.009,0.023,0.017,0.032,0.024
			V16.096z"/>
		<path fill="#8B3392" d="M30.499,15.949v0.679h-0.136v-0.679h-0.1V15.83h0.326v0.119H30.499z"/>
		<path fill="#8B3392" d="M30.542,15.949V15.83h0.401c0.001-0.005,0.001-0.008,0.001-0.01c0-0.062-0.029-0.103-0.088-0.123
			c-0.008-0.002-0.016-0.003-0.026-0.003c-0.014,0-0.032,0.003-0.053,0.009c-0.029,0.008-0.046,0.012-0.052,0.013
			c-0.023,0.004-0.043,0.011-0.061,0.021c-0.022,0.015-0.048,0.029-0.077,0.042l-0.043-0.101c0.052-0.036,0.12-0.067,0.205-0.092
			c0.036-0.01,0.069-0.016,0.101-0.016c0.034,0,0.072,0.012,0.114,0.037c0.072,0.043,0.11,0.118,0.113,0.223h0.078v0.119H30.542z
			 M31.014,16.742c-0.055-0.05-0.114-0.096-0.176-0.139c-0.03-0.021-0.079-0.044-0.149-0.069c-0.055-0.02-0.087-0.03-0.097-0.03
			l0.001-0.159c0.012,0,0.029,0.001,0.053,0.002c0.024,0.001,0.041,0.002,0.053,0.002c0.062,0,0.112-0.008,0.15-0.024
			c0.073-0.031,0.11-0.067,0.11-0.109c0-0.031-0.014-0.056-0.042-0.077c-0.027-0.016-0.054-0.031-0.082-0.046
			c-0.008-0.004-0.015-0.006-0.023-0.006c-0.016,0-0.034,0.004-0.053,0.013c-0.024,0.011-0.035,0.024-0.033,0.038
			c0.005,0.035,0.042,0.05,0.111,0.045l-0.074,0.113c-0.03,0.002-0.06-0.008-0.091-0.028c-0.056-0.038-0.084-0.084-0.084-0.138
			c0-0.055,0.028-0.097,0.085-0.127c0.046-0.025,0.099-0.038,0.159-0.038c0.026,0,0.048,0.004,0.067,0.013
			c0.019,0.008,0.038,0.018,0.057,0.028c0.092,0.047,0.139,0.118,0.139,0.214c0,0.069-0.028,0.124-0.085,0.166
			c-0.043,0.032-0.105,0.055-0.186,0.069c0.024,0.011,0.059,0.03,0.104,0.058c0.077,0.058,0.139,0.11,0.186,0.156L31.014,16.742z"/>
		<path fill="#8B3392" d="M31.968,15.949v0.679h-0.136v-0.269c0-0.023-0.01-0.047-0.03-0.072c-0.02-0.025-0.042-0.037-0.065-0.037
			c-0.021,0-0.041,0.013-0.06,0.039c-0.019,0.026-0.029,0.056-0.029,0.089h-0.147c0-0.038-0.01-0.07-0.029-0.097
			c-0.019-0.027-0.042-0.041-0.067-0.041c-0.021,0-0.042,0.008-0.061,0.023c-0.019,0.015-0.03,0.032-0.032,0.052l-0.004,0.035v0.014
			c0,0.07,0.043,0.105,0.128,0.105c0.013,0,0.036-0.003,0.069-0.009l-0.048,0.137c-0.028,0.003-0.045,0.005-0.051,0.005
			c-0.064,0-0.122-0.023-0.176-0.071c-0.021-0.018-0.038-0.045-0.052-0.082c-0.012-0.033-0.019-0.065-0.019-0.096
			c0-0.073,0.023-0.133,0.068-0.179c0.045-0.046,0.105-0.069,0.178-0.069c0.068,0,0.126,0.033,0.172,0.098
			c0.05-0.065,0.104-0.098,0.162-0.098c0.032,0,0.063,0.014,0.092,0.043v-0.201h-0.734V15.83h0.947v0.119H31.968z"/>
		<path fill="#8B3392" d="M32.987,15.949h-0.612V15.83h0.847v0.119h-0.094v0.679h-0.12c-0.012-0.035-0.07-0.089-0.176-0.162
			c-0.043-0.03-0.103-0.059-0.179-0.087c-0.081-0.03-0.146-0.045-0.194-0.045l-0.036-0.135c0.032-0.025,0.119-0.069,0.263-0.131
			C32.746,16.041,32.846,16.001,32.987,15.949z M32.994,16.096c-0.025,0.009-0.052,0.018-0.081,0.03
			c-0.043,0.019-0.12,0.053-0.232,0.102l-0.026,0.011c0.107,0.038,0.21,0.093,0.308,0.167c0.013,0.009,0.023,0.017,0.032,0.024
			V16.096z"/>
		<path fill="#8B3392" d="M33.449,15.949c-0.043,0.059-0.064,0.108-0.064,0.147c0,0.018,0.022,0.09,0.066,0.215
			c0.023,0.063,0.034,0.116,0.034,0.157c0,0.079-0.044,0.134-0.133,0.166c-0.027,0.01-0.075,0.019-0.144,0.025l0.018-0.117
			c0.08-0.017,0.12-0.045,0.12-0.085c0-0.037-0.017-0.093-0.05-0.17c-0.033-0.076-0.05-0.132-0.05-0.168
			c0-0.046,0.019-0.103,0.058-0.17h-0.141V15.83h0.379v0.119H33.449z"/>
		<path fill="#8B3392" d="M33.74,15.949v0.679h-0.136v-0.679h-0.1V15.83h0.326v0.119H33.74z"/>
		<path fill="#8B3392" d="M34.053,16.27c-0.064,0-0.115-0.02-0.153-0.06c-0.039-0.04-0.058-0.092-0.058-0.155
			c0-0.058,0.02-0.107,0.059-0.146c0.039-0.039,0.089-0.059,0.147-0.059c0.08,0,0.138,0.04,0.173,0.12
			c0.015,0.034,0.023,0.067,0.023,0.1c0,0.061-0.017,0.11-0.05,0.146C34.162,16.253,34.115,16.27,34.053,16.27z M34.202,16.708
			c-0.172-0.145-0.289-0.232-0.351-0.261l0.001-0.188c0.237,0.169,0.392,0.304,0.465,0.405v0.14L34.202,16.708z M34.082,15.994
			c-0.014-0.009-0.027-0.013-0.041-0.011c-0.051,0.009-0.077,0.034-0.077,0.076c0,0.022,0.008,0.042,0.025,0.06
			c0.017,0.018,0.036,0.028,0.057,0.028l0.019-0.003c0.039-0.012,0.058-0.036,0.058-0.07C34.124,16.04,34.11,16.014,34.082,15.994z"
			/>
		<path fill="#8B3392" d="M35.171,15.75c-0.158-0.099-0.288-0.149-0.388-0.149c-0.119,0-0.206,0.038-0.262,0.113
			c-0.019,0.026-0.03,0.065-0.032,0.116h0.095v0.119H34.49v0.679h-0.138v-0.679h-0.091V15.83h0.091
			c0.003-0.096,0.035-0.175,0.095-0.235c0.061-0.06,0.143-0.097,0.247-0.111c0.011-0.001,0.031-0.003,0.061-0.007h0.029
			c0.083,0,0.165,0.018,0.247,0.054c0.044,0.021,0.117,0.062,0.218,0.124L35.171,15.75z"/>
		<path fill="#8B3392" d="M35.059,15.949v0.004c0.057,0.003,0.116,0.021,0.178,0.054c0.087,0.047,0.13,0.111,0.13,0.193
			c0,0.047-0.014,0.088-0.043,0.122c-0.029,0.034-0.067,0.057-0.114,0.068c-0.047,0.011-0.087,0.012-0.119,0.005v-0.128
			c0.015,0.002,0.03,0.003,0.043,0.003c0.068,0,0.102-0.024,0.102-0.073c0-0.058-0.059-0.095-0.176-0.11v0.542h-0.12
			c-0.019-0.038-0.039-0.067-0.058-0.087c-0.007-0.008-0.024-0.03-0.052-0.068c-0.009-0.012-0.025-0.028-0.048-0.047
			c-0.023-0.019-0.039-0.034-0.048-0.046c-0.004-0.006-0.014-0.012-0.032-0.018c-0.059-0.021-0.106-0.031-0.143-0.031l-0.036-0.135
			c0.03-0.022,0.097-0.062,0.202-0.121c0.008-0.006,0.04-0.024,0.096-0.056c0.02-0.012,0.054-0.032,0.102-0.059v-0.01h-0.429V15.83
			h0.932v0.119H35.059z M34.923,16.106c-0.022,0.017-0.056,0.04-0.101,0.068c-0.012,0.005-0.025,0.014-0.04,0.029
			c-0.015,0.015-0.029,0.028-0.043,0.04c0.014,0.013,0.038,0.031,0.069,0.055c0.03,0.034,0.068,0.076,0.114,0.126V16.106z"/>
		<path fill="#8B3392" d="M35.629,16.27c-0.064,0-0.115-0.02-0.153-0.06c-0.039-0.04-0.058-0.092-0.058-0.155
			c0-0.058,0.02-0.107,0.059-0.146c0.039-0.039,0.089-0.059,0.147-0.059c0.08,0,0.138,0.04,0.173,0.12
			c0.015,0.034,0.023,0.067,0.023,0.1c0,0.061-0.017,0.11-0.05,0.146C35.738,16.253,35.691,16.27,35.629,16.27z M35.778,16.708
			c-0.172-0.145-0.289-0.232-0.351-0.261l0.001-0.188c0.237,0.169,0.391,0.304,0.465,0.405v0.14L35.778,16.708z M35.657,15.994
			c-0.014-0.009-0.027-0.013-0.041-0.011c-0.051,0.009-0.077,0.034-0.077,0.076c0,0.022,0.008,0.042,0.025,0.06
			c0.017,0.018,0.036,0.028,0.057,0.028l0.019-0.003c0.039-0.012,0.058-0.036,0.058-0.07C35.699,16.04,35.685,16.014,35.657,15.994z
			"/>
	</g>
	<g>
		<polygon fill="#8B3392" points="20.615,16.686 20.868,16.772 20.969,16.686 20.716,16.597 		"/>
		<g>
			<path fill="#8B3392" d="M20.7,15.984v-0.153h-1.987v0.153h0.334v0.342c0,0,0.256,0,0.287,0c0,0,0.082-0.026,0.101-0.068
				c0,0.049,0,0.116,0,0.135c0,0.06-0.045,0.113-0.101,0.113c-0.056,0-0.396,0-0.422,0c-0.025,0-0.051-0.011-0.051-0.113
				c0-0.101,0-0.319,0-0.319h-0.149c0,0,0,0.375,0,0.409c0,0.034,0.021,0.153,0.128,0.153s0.549,0,0.572,0
				c0.089-0.003,0.152-0.094,0.157-0.17c0-0.165,0-0.392,0-0.392h-0.135c-0.014,0.06-0.006,0.101-0.067,0.116
				c-0.062,0-0.169,0-0.169,0v-0.207h0.489v0.653h0.169v-0.653h0.118v0.653c0,0,0.517,0,0.557,0c0.039,0,0.169-0.033,0.169-0.176
				c0-0.143,0-0.386,0-0.386h-0.135c0,0.038-0.006,0.094-0.067,0.094c-0.062,0-0.371,0-0.371,0v-0.185H20.7z M20.48,16.303
				c0.025,0.008,0.059-0.034,0.084-0.068c0,0.038,0,0.098,0,0.158c0,0.06-0.048,0.113-0.084,0.113c-0.037,0-0.354,0-0.354,0v-0.203
				C20.126,16.303,20.449,16.303,20.48,16.303z"/>
		</g>
		<rect x="20.885" y="16.168" fill="#8B3392" width="0.337" height="0.18"/>
		<g>
			<path fill="#8B3392" d="M21.409,15.831v0.153h0.556v0.091h-0.556c0,0,0,0.338,0,0.364c0.012,0.119,0.073,0.198,0.188,0.198
				c0.138,0,0.503,0,0.503,0v-0.653h0.118v0.653h0.152v-0.806H21.409z M21.965,16.529c0,0-0.323,0-0.337,0
				c-0.051-0.007-0.084-0.067-0.084-0.135c0-0.068,0-0.18,0-0.18h0.422V16.529z"/>
		</g>
		<path fill="#8B3392" d="M23.098,15.984h0.688v0.091c-0.031,0-0.183,0-0.202,0c-0.008,0.064-0.112,0.098-0.135,0
			c-0.112,0-0.351,0-0.351,0s0,0.349,0,0.386c0,0.037,0.006,0.16,0.109,0.176c0.096,0,0.276,0,0.276,0v-0.131c0,0-0.152,0-0.186,0
			c-0.037-0.011-0.067-0.034-0.067-0.09c0-0.068,0-0.203,0-0.203h0.186v0.113h0.169v-0.09c-0.011-0.041,0.177-0.038,0.186,0
			c0,0.056,0,0.401,0,0.401h0.152v-0.653h0.101v0.653h0.152v-0.806h-1.076V15.984z"/>
		<g>
			<path fill="#8B3392" d="M22.859,15.876c-0.062,0-0.358,0-0.358,0s0,0.178,0,0.212c0.014,0.068,0.05,0.151,0.173,0.158
				c0.124,0,0.287,0,0.287,0v-0.261C22.951,15.94,22.921,15.883,22.859,15.876z M22.75,16.101c-0.065,0-0.117-0.024-0.117-0.053
				s0.052-0.053,0.117-0.053s0.117,0.024,0.117,0.053S22.814,16.101,22.75,16.101z"/>
		</g>
		<polygon fill="#8B3392" points="22.524,16.324 22.524,16.457 22.957,16.637 22.957,16.496 		"/>
		<g>
			<path fill="#8B3392" d="M26.493,15.876c-0.062,0-0.358,0-0.358,0s0,0.178,0,0.212c0.014,0.068,0.05,0.151,0.173,0.158
				c0.124,0,0.287,0,0.287,0v-0.261C26.586,15.94,26.555,15.883,26.493,15.876z M26.384,16.101c-0.065,0-0.117-0.024-0.117-0.053
				s0.052-0.053,0.117-0.053c0.065,0,0.117,0.024,0.117,0.053S26.448,16.101,26.384,16.101z"/>
		</g>
		<polygon fill="#8B3392" points="26.158,16.324 26.158,16.457 26.592,16.637 26.592,16.496 		"/>
		<path fill="#8B3392" d="M27.413,16.075v-0.091h0.28v-0.153h-0.97v0.153h0.556v0.091h-0.556c0,0,0,0.338,0,0.364
			c0.012,0.119,0.073,0.198,0.188,0.198c0.138,0,0.503,0,0.503,0v-0.401h0.135c0.022,0,0.028-0.011,0.034,0.022
			c0,0.041,0,0.068,0,0.068c-0.008,0.034-0.011,0.056-0.034,0.068c-0.022,0-0.05,0-0.05,0v0.135h0.1
			c0.034-0.004,0.096-0.041,0.101-0.09c0-0.075,0-0.364,0-0.364H27.413z M27.278,16.529c0,0-0.323,0-0.337,0
			c-0.051-0.007-0.084-0.067-0.084-0.135c0-0.068,0-0.18,0-0.18h0.419l0.002,0.023h0V16.529z"/>
		<g>
			<path fill="#8B3392" d="M24.629,15.831v0.153h0.556v0.091h-0.556c0,0,0,0.338,0,0.364c0.012,0.119,0.073,0.198,0.188,0.198
				c0.138,0,0.503,0,0.503,0v-0.653h0.176l-0.064,0.128v0.09c0,0,0.096,0,0.118,0c0.063,0.007,0.084,0.049,0.084,0.158
				c0,0.075-0.017,0.129-0.075,0.135c-0.037,0-0.11,0-0.11,0v0.135c0,0,0.084,0,0.118,0c0.034,0,0.188,0.015,0.202-0.135
				c0.017-0.304,0.031-0.383-0.186-0.405l0.032-0.105h0.238v0.653h0.152v-0.806H24.629z M25.184,16.529c0,0-0.323,0-0.337,0
				c-0.051-0.007-0.084-0.067-0.084-0.135c0-0.068,0-0.18,0-0.18h0.422V16.529z"/>
		</g>
	</g>
</g>
</svg>
